<mxfile host="app.diagrams.net" modified="2024-02-23T16:18:21.124Z" agent="Mozilla/5.0 (Macintosh; Intel Mac OS X 10_15_7) AppleWebKit/605.1.15 (KHTML, like Gecko) Version/17.1 Safari/605.1.15" version="23.1.6" etag="a3jirRl1iptfoiUjSAnn" type="github">
  <diagram name="Page-1" id="vw0zuCiZUpzp5BSBPS6T">
    <mxGraphModel>
      <root>
        <mxCell id="0" />
        <mxCell id="1" parent="0" />
      </root>
    </mxGraphModel>
  </diagram>
</mxfile>
